#define im_layout_width 12
#define im_layout_height 12
static unsigned char im_layout_bits[] = {
   0xf7, 0x0f, 0x15, 0x08, 0x15, 0x08, 0x15, 0x08, 0x15, 0x08, 0xf5, 0x0f,
   0x05, 0x00, 0xf5, 0x0f, 0x15, 0x08, 0x15, 0x08, 0x15, 0x08, 0xf7, 0x0f };
