#define resizableGrid_width 12
#define resizableGrid_height 12
static unsigned char resizableGrid_bits[] = {
   0x7f, 0x0f, 0x41, 0x09, 0x41, 0x0f, 0x41, 0x00, 0x7f, 0x0f, 0x00, 0x09,
   0x7f, 0x09, 0x41, 0x09, 0x41, 0x09, 0x41, 0x09, 0x41, 0x09, 0x7f, 0x0f };
